<?xml version="1.0" encoding="UTF-8" standalone="no"?>
<!-- Created with Inkscape (http://www.inkscape.org/) -->

<svg
   width="175.142mm"
   height="175.142mm"
   viewBox="0 0 175.142 175.142"
   version="1.1"
   id="svg1"
   xml:space="preserve"
   inkscape:version="1.4 (86a8ad7, 2024-10-11)"
   sodipodi:docname="arcri_logo_black.svg"
   xmlns:inkscape="http://www.inkscape.org/namespaces/inkscape"
   xmlns:sodipodi="http://sodipodi.sourceforge.net/DTD/sodipodi-0.dtd"
   xmlns="http://www.w3.org/2000/svg"
   xmlns:svg="http://www.w3.org/2000/svg"><sodipodi:namedview
     id="namedview1"
     pagecolor="#ffffff"
     bordercolor="#000000"
     borderopacity="0.25"
     inkscape:showpageshadow="2"
     inkscape:pageopacity="0.0"
     inkscape:pagecheckerboard="0"
     inkscape:deskcolor="#d1d1d1"
     inkscape:document-units="mm"
     inkscape:zoom="1"
     inkscape:cx="414"
     inkscape:cy="357.5"
     inkscape:window-width="2560"
     inkscape:window-height="1369"
     inkscape:window-x="-8"
     inkscape:window-y="-8"
     inkscape:window-maximized="1"
     inkscape:current-layer="layer1" /><defs
     id="defs1" /><g
     inkscape:label="Layer 1"
     inkscape:groupmode="layer"
     id="layer1"><g
       id="g17"
       transform="matrix(1.0000024,0,0,1.0000024,-0.6435229,-0.00207194)"><path
         style="fill:#000000"
         d="m 85.710073,173.68154 c -1.27959,-0.79718 -6.36471,-3.94151 -11.30026,-6.98739 -4.935563,-3.04589 -9.708593,-5.99309 -10.606743,-6.54933 -0.89815,-0.55624 -1.71068,-1.15649 -1.80562,-1.33389 -0.32685,-0.61074 -0.45333,-0.14706 4.38069,-16.05987 0.45812,-1.50809 1.30284,-4.29609 1.87713,-6.19556 0.5743,-1.89947 1.18446,-3.6087 1.35592,-3.79829 0.36361,-0.40205 1.42665,-0.97406 1.81024,-0.97406 0.14597,0 3.925743,2.02773 8.399493,4.50606 5.31521,2.94447 8.24371,4.47739 8.45036,4.42335 0.17394,-0.0455 3.90787,-2.07321 8.29762,-4.50606 4.389757,-2.43284 8.101307,-4.42335 8.247907,-4.42335 0.38457,0 1.4473,0.57148 1.81139,0.97406 0.17146,0.18959 0.78162,1.89882 1.35592,3.79829 0.57429,1.89947 1.41901,4.68747 1.87713,6.19556 4.83402,15.91281 4.70754,15.44913 4.38069,16.05987 -0.0949,0.1774 -0.90747,0.77779 -1.80562,1.33419 -2.07869,1.28776 -17.853517,11.02268 -21.540117,13.29279 -1.53479,0.94508 -2.80607,1.71264 -2.82506,1.70569 -0.019,-0.007 -1.08148,-0.66488 -2.36107,-1.46206 z M 48.56528,150.83802 c -0.68359,-0.39633 -2.47677,-1.43603 -3.98486,-2.31046 -8.47784,-4.91564 -19.81771,-11.4739 -25.92414,-14.99289 -4.69501,-2.70561 -6.09963,-3.7431 -6.58259,-4.86206 -0.19478,-0.45128 -0.23071,-6.59916 -0.23019,-39.384766 6.1e-4,-38.327933 0.005,-38.857213 0.32721,-39.385643 0.64866,-1.06386 1.57996,-0.93674 3.05344,0.41677 0.56867,0.52237 2.74674,2.48277 4.84015,4.35646 2.09342,1.87368 4.5974,4.11712 5.56441,4.98541 0.96701,0.86829 3.4715,3.111733 5.56553,4.985413 2.09403,1.87369 5.0465,4.52063 6.56104,5.88209 1.51455,1.36146 3.48284,3.1122 4.37398,3.89052 l 1.62026,1.41514 v 20.23783 20.237826 l 1.62026,0.90201 c 0.89114,0.4961 4.01325,2.21202 6.93803,3.81316 2.92478,1.60113 5.6169,3.1276 5.98249,3.39215 1.09877,0.79507 1.2172,0.1683 -1.90992,10.10815 -1.90312,6.04922 -4.65168,14.86435 -4.76701,15.2886 -0.29396,1.08143 -0.90303,1.74489 -1.60183,1.74489 -0.11186,0 -0.76268,-0.32427 -1.44626,-0.7206 z m 77.0281,0.51989 c -0.46405,-0.26614 -0.68884,-0.60542 -0.91226,-1.37693 -0.22522,-0.77768 -2.72455,-8.78856 -4.82211,-15.45585 -3.12712,-9.93985 -3.00869,-9.31308 -1.90992,-10.10815 0.36559,-0.26455 3.05771,-1.79102 5.98249,-3.39215 2.92478,-1.60114 6.04689,-3.31706 6.93803,-3.81316 l 1.62026,-0.90201 V 96.071834 75.834004 l 1.62026,-1.41514 c 0.89114,-0.77832 2.85943,-2.52906 4.37398,-3.89052 1.51454,-1.36146 4.46701,-4.0084 6.56104,-5.88209 2.09403,-1.87368 4.59852,-4.117123 5.56553,-4.985413 0.96701,-0.86829 3.47099,-3.11173 5.56441,-4.98541 2.09341,-1.87369 4.27148,-3.83409 4.84015,-4.35646 1.47348,-1.35351 2.40478,-1.48063 3.05344,-0.41677 0.3222,0.52843 0.3266,1.05771 0.32721,39.385643 5.2e-4,32.785606 -0.0354,38.933486 -0.23019,39.384766 -0.48296,1.11896 -1.88758,2.15645 -6.58259,4.86206 -6.10643,3.51899 -17.4463,10.07725 -25.92414,14.99289 -1.50809,0.87443 -3.30127,1.91413 -3.98486,2.31046 -1.31824,0.7643 -1.55249,0.82283 -2.08073,0.51989 z M 69.02246,122.37926 c -2.64963,-0.71238 -4.5647,-3.0751 -4.90447,-6.05089 -0.10066,-0.88161 0.23053,-1.91796 9.349763,-29.257036 5.19976,-15.58867 9.53537,-28.494873 9.63469,-28.680453 0.33824,-0.632 1.48172,-1.51407 2.46126,-1.89858 1.38738,-0.54462 3.7246,-0.54462 5.11198,0 0.97954,0.38451 2.12302,1.26658 2.46126,1.89858 0.0993,0.18558 4.43493,13.091783 9.634697,28.680453 9.11923,27.339076 9.45042,28.375426 9.34976,29.257036 -0.34446,3.01684 -2.26283,5.35242 -4.97696,6.05937 -3.27531,0.85311 -6.42122,-0.60449 -7.877167,-3.64975 -0.80142,-1.67625 -0.71687,-1.41081 -2.09089,-6.56413 -2.86032,-10.72781 -2.53901,-9.74611 -3.54588,-10.83366 -1.65591,-1.788586 -4.32635,-2.731176 -6.62308,-2.337756 -1.63582,0.2802 -3.32458,1.177756 -4.39854,2.337756 -1.00687,1.08755 -0.68556,0.10585 -3.54588,10.83366 -1.37402,5.15332 -1.28947,4.88788 -2.09089,6.56413 -1.45964,3.05298 -4.66941,4.52319 -7.949653,3.64127 z M 47.07313,61.137521 c -0.2285,-0.0902 -0.75197,-0.48904 -1.16327,-0.88625 -0.41129,-0.39721 -1.76174,-1.60862 -3.001,-2.69203 -7.51327,-6.56837 -17.66259,-15.6187 -18.47782,-16.477 -0.82684,-0.87052 -0.95553,-1.09301 -0.95553,-1.651982 0,-0.48888 0.11113,-0.751322 0.45699,-1.079198 0.25135,-0.238277 2.13958,-1.435638 4.19606,-2.660803 6.70224,-3.992908 30.54379,-18.21215 35.31334,-21.06108 2.55918,-1.528641 8.39211,-5.0055443 12.962073,-7.7264511 4.56996,-2.720907 9.03228,-5.386653 9.91626,-5.923879 0.88398,-0.53722696 1.69374,-0.97677596 1.79946,-0.97677596 0.10572,0 0.91548,0.439549 1.79946,0.97677596 0.88398,0.537226 5.3463,3.202972 9.91626,5.923879 4.569967,2.7209068 10.402897,6.1978101 12.962077,7.7264511 4.76955,2.84893 28.6111,17.068172 35.31334,21.06108 2.05648,1.225165 3.94471,2.422526 4.19606,2.660803 0.34586,0.327876 0.45699,0.590318 0.45699,1.079198 0,0.558972 -0.12869,0.781462 -0.95553,1.651982 -0.52555,0.55331 -4.3916,4.04378 -8.59123,7.7566 -4.19963,3.71282 -8.89878,7.8723 -10.44257,9.24329 -3.65701,3.24768 -3.45399,3.09777 -4.32878,3.19637 -0.62368,0.0703 -0.90023,0.003 -1.55616,-0.37718 -0.84556,-0.49044 -4.2993,-2.5747 -13.75976,-8.30373 -3.19897,-1.93722 -7.4615,-4.51717 -9.47228,-5.73322 -2.01078,-1.21605 -6.289137,-3.80727 -9.507447,-5.75827 -3.2183,-1.950988 -5.932,-3.547255 -6.03043,-3.547255 -0.0984,0 -2.81213,1.596267 -6.03043,3.547255 -3.21831,1.951 -7.49666,4.54222 -9.50744,5.75827 -2.010783,1.21605 -6.273313,3.796 -9.472283,5.73322 -9.39927,5.69198 -12.91353,7.81291 -13.72449,8.28306 -0.79242,0.45939 -1.57802,0.54668 -2.31192,0.25687 z"
         id="path17" /></g></g></svg>
